HIERARCHY
ROOT joint_Root
{
	OFFSET 0.0 0.0 0.0
	CHANNELS 6 Xposition Yposition Zposition Zrotation Xrotation Yrotation 
	JOINT Hips
	{
		OFFSET 4.5925 91.4895 -427.239
		CHANNELS 6 Xposition Yposition Zposition Zrotation Xrotation Yrotation 
		JOINT Spine
		{
			OFFSET 15.7357 0.0 0.0
			CHANNELS 6 Xposition Yposition Zposition Zrotation Xrotation Yrotation 
			JOINT Chest
			{
				OFFSET 8.98455 -0.406207 0.0
				CHANNELS 6 Xposition Yposition Zposition Zrotation Xrotation Yrotation 
				JOINT Neck
				{
					OFFSET 16.3773 0.0 0.0
					CHANNELS 6 Xposition Yposition Zposition Zrotation Xrotation Yrotation 
					JOINT Head
					{
						OFFSET 6.45672 0.0 0.0
						CHANNELS 6 Xposition Yposition Zposition Zrotation Xrotation Yrotation 
						End Site
						{
							OFFSET 0.0 0.0 0.0
						}
					}
				}
				JOINT Shoulder_L
				{
					OFFSET 12.9942 -0.242716 4.98039
					CHANNELS 6 Xposition Yposition Zposition Zrotation Xrotation Yrotation 
					JOINT UpperArm_L
					{
						OFFSET 5.34809 0.0 0.0
						CHANNELS 6 Xposition Yposition Zposition Zrotation Xrotation Yrotation 
						JOINT LowerArm_L
						{
							OFFSET 24.3286 1.87007e-05 0.0
							CHANNELS 6 Xposition Yposition Zposition Zrotation Xrotation Yrotation 
							JOINT Hand_L
							{
								OFFSET 22.2916 0.0 0.0
								CHANNELS 6 Xposition Yposition Zposition Zrotation Xrotation Yrotation 
								End Site
								{
									OFFSET 0.0 0.0 0.0
								}
							}
						}
					}
				}
				JOINT Shoulder_R
				{
					OFFSET 12.9945 -0.242716 -4.98039
					CHANNELS 6 Xposition Yposition Zposition Zrotation Xrotation Yrotation 
					JOINT UpperArm_R
					{
						OFFSET -5.34813 0.0 0.0
						CHANNELS 6 Xposition Yposition Zposition Zrotation Xrotation Yrotation 
						JOINT LowerArm_R
						{
							OFFSET -24.3289 0.000322201 0.0
							CHANNELS 6 Xposition Yposition Zposition Zrotation Xrotation Yrotation 
							JOINT Hand_R
							{
								OFFSET -22.2915 -0.000108084 0.0
								CHANNELS 6 Xposition Yposition Zposition Zrotation Xrotation Yrotation 
								End Site
								{
									OFFSET 0.0 0.0 0.0
								}
							}
						}
					}
				}
			}
		}
		JOINT UpperLeg_L
		{
			OFFSET -2.19248 -6.46944 0.0
			CHANNELS 6 Xposition Yposition Zposition Zrotation Xrotation Yrotation 
			JOINT LowerLeg_L
			{
				OFFSET 39.0811 0.0 -1.23785e-05
				CHANNELS 6 Xposition Yposition Zposition Zrotation Xrotation Yrotation 
				JOINT Foot_L
				{
					OFFSET 40.9854 0.0 -1.26872e-05
					CHANNELS 6 Xposition Yposition Zposition Zrotation Xrotation Yrotation 
					JOINT Toes_L
					{
						OFFSET 11.7543 0.0 0.0
						CHANNELS 6 Xposition Yposition Zposition Zrotation Xrotation Yrotation 
						End Site
						{
							OFFSET 0.0 0.0 0.0
						}
					}
				}
			}
		}
		JOINT UpperLeg_R
		{
			OFFSET -2.19251 6.46944 0.0
			CHANNELS 6 Xposition Yposition Zposition Zrotation Xrotation Yrotation 
			JOINT LowerLeg_R
			{
				OFFSET -39.0811 -0.00228153 -0.0401928
				CHANNELS 6 Xposition Yposition Zposition Zrotation Xrotation Yrotation 
				JOINT Foot_R
				{
					OFFSET -40.9854 0.0 0.0
					CHANNELS 6 Xposition Yposition Zposition Zrotation Xrotation Yrotation 
					JOINT Toes_R
					{
						OFFSET -11.7543 0.0 0.0
						CHANNELS 6 Xposition Yposition Zposition Zrotation Xrotation Yrotation 
						End Site
						{
							OFFSET 0.0 0.0 0.0
						}
					}
				}
			}
		}
	}
}
MOTION
Frames:	6
Frame Time:	0.0333333
0.000000 0.000000 0.000000 0.000000 0.000000 -0.000000 -1.211030 90.932200 -1.727710 87.810100 -3.843320 12.911400 15.735700 0.000005 -0.000001 90.008500 77.217400 -89.657200 8.984550 -0.406207 -0.000000 17.799200 0.034365 0.698574 16.377300 -0.000001 -0.000001 5.713360 -2.794310 0.454650 6.456720 -0.000001 -0.000000 -7.894550 -2.253410 -0.725949 12.994200 -0.242716 4.980390 -91.614500 8.410890 -79.093300 5.348090 -0.000007 -0.000001 -61.105700 29.803800 -23.122000 24.328600 0.000019 0.000005 12.069000 24.112700 -27.626400 22.291600 -0.000001 0.000005 12.046300 5.211340 2.433480 12.994500 -0.242716 -4.980390 89.053000 11.351900 -85.199500 -5.348130 -0.000001 -0.000004 -55.623100 37.786500 -23.168500 -24.328900 0.000322 -0.000009 2.038320 5.127790 -21.722900 -22.291500 -0.000108 -0.000004 15.981400 5.409040 -3.233580 -2.192480 -6.469440 -0.000000 -171.583000 -13.988500 1.280730 39.081100 -0.000007 -0.000012 -0.139602 0.226234 31.677700 40.985400 -0.000006 -0.000013 0.665397 7.409280 -69.473000 11.754300 -0.000000 0.000003 -0.000182 -0.001710 -16.642200 -2.192510 6.469440 -0.000001 174.199000 23.171100 -176.288000 -39.081100 -0.002282 -0.040193 -0.186120 0.340738 29.070800 -40.985400 0.000008 0.000006 5.091690 18.861200 -69.378000 -11.754300 -0.000006 -0.000006 -0.002351 -0.033025 -17.916000
0.000000 0.000000 0.000000 0.000000 0.000000 -0.000000 -1.196520 90.929700 -1.739250 87.811900 -3.829180 12.945700 15.735700 0.000005 -0.000001 90.001900 77.180300 -89.643300 8.984550 -0.406207 -0.000000 17.873500 0.032342 0.713631 16.377300 -0.000001 -0.000001 5.762700 -2.830620 0.505686 6.456720 -0.000001 -0.000000 -7.972170 -2.255080 -0.722079 12.994200 -0.242716 4.980390 -91.604300 8.393080 -79.138000 5.348090 -0.000007 -0.000001 -61.262400 29.141300 -22.946000 24.328600 0.000019 0.000005 12.347400 23.345800 -28.916000 22.291600 -0.000001 0.000005 12.486200 5.214630 2.349850 12.994500 -0.242716 -4.980390 89.048800 11.339500 -85.173100 -5.348130 -0.000001 -0.000004 -55.599800 37.776800 -23.185800 -24.328900 0.000322 -0.000009 2.042380 5.141440 -21.709900 -22.291500 -0.000108 -0.000004 15.992500 5.408710 -3.222740 -2.192480 -6.469440 -0.000000 -171.592000 -13.982100 1.297110 39.081100 -0.000007 -0.000012 -0.138630 0.224506 31.695200 40.985400 -0.000006 -0.000013 0.684291 7.423220 -69.477300 11.754300 -0.000000 0.000003 -0.000188 -0.001761 -16.644100 -2.192510 6.469440 -0.000001 174.174000 23.159100 -176.267000 -39.081100 -0.002282 -0.040193 -0.185377 0.339176 29.087000 -40.985400 0.000008 0.000006 5.080850 18.864300 -69.375400 -11.754300 -0.000006 -0.000006 -0.002450 -0.034220 -17.964600
0.000000 0.000000 0.000000 0.000000 0.000000 -0.000000 -1.183910 90.927300 -1.752550 87.830300 -3.818430 12.971600 15.735700 0.000005 -0.000001 89.998600 77.146400 -89.635600 8.984550 -0.406207 -0.000000 17.941200 0.031449 0.722377 16.377300 -0.000001 -0.000001 5.807240 -2.845980 0.511594 6.456720 -0.000001 -0.000000 -8.034880 -2.282000 -0.673247 12.994200 -0.242716 4.980390 -91.602000 8.372720 -79.128100 5.348090 -0.000007 -0.000001 -61.227700 28.486700 -22.972800 24.328600 0.000019 0.000005 12.784700 22.696400 -30.459500 22.291600 -0.000001 0.000005 12.738200 5.215220 2.335080 12.994500 -0.242716 -4.980390 89.048200 11.338100 -85.169800 -5.348130 -0.000001 -0.000004 -55.589400 37.705000 -23.163400 -24.328900 0.000322 -0.000009 2.059160 5.189120 -21.689800 -22.291500 -0.000108 -0.000004 15.953600 5.409080 -3.234860 -2.192480 -6.469440 -0.000000 -171.620000 -13.989600 1.299610 39.081100 -0.000007 -0.000012 -0.136656 0.221208 31.706800 40.985400 -0.000006 -0.000013 0.696930 7.412590 -69.469300 11.754300 -0.000000 0.000003 -0.000182 -0.001706 -16.642100 -2.192510 6.469440 -0.000001 174.141000 23.156900 -176.259000 -39.081100 -0.002282 -0.040193 -0.184642 0.337491 29.113200 -40.985400 0.000008 0.000006 5.073980 18.849400 -69.379900 -11.754300 -0.000006 -0.000006 -0.002517 -0.035010 -17.996800
0.000000 0.000000 0.000000 0.000000 0.000000 -0.000000 -1.175540 90.931700 -1.778990 87.838400 -3.775480 12.970900 15.735700 0.000005 -0.000001 89.968300 77.122500 -89.596000 8.984550 -0.406207 -0.000000 17.988900 0.019087 0.743058 16.377300 -0.000001 -0.000001 5.861450 -2.888620 0.524937 6.456720 -0.000001 -0.000000 -8.107220 -2.312280 -0.661072 12.994200 -0.242716 4.980390 -91.602600 8.358750 -79.106300 5.348090 -0.000007 -0.000001 -61.055600 27.844300 -23.155900 24.328600 0.000019 0.000005 13.209400 21.930900 -32.147700 22.291600 -0.000001 0.000005 13.126200 5.215950 2.316040 12.994500 -0.242716 -4.980390 89.048200 11.328200 -85.165500 -5.348130 -0.000001 -0.000004 -55.588100 37.605200 -23.166600 -24.328900 0.000322 -0.000009 2.043620 5.168440 -21.619100 -22.291500 -0.000108 -0.000004 15.840900 5.409250 -3.240380 -2.192480 -6.469440 -0.000000 -171.641000 -13.960600 1.286260 39.081100 -0.000007 -0.000012 -0.139940 0.226695 31.687500 40.985400 -0.000006 -0.000013 0.707926 7.435790 -69.445300 11.754300 -0.000000 0.000003 -0.000177 -0.001671 -16.640800 -2.192510 6.469440 -0.000001 174.109000 23.244800 -176.266000 -39.081100 -0.002282 -0.040193 -0.184445 0.337264 29.104200 -40.985400 0.000008 0.000006 5.074860 18.877600 -69.355500 -11.754300 -0.000006 -0.000006 -0.002400 -0.033616 -17.940100
0.000000 0.000000 0.000000 0.000000 0.000000 -0.000000 -1.173210 90.928100 -1.793130 87.858500 -3.731200 13.022400 15.735700 0.000005 -0.000001 89.974900 77.083600 -89.592100 8.984550 -0.406207 -0.000000 18.066800 0.023173 0.763525 16.377300 -0.000001 -0.000001 5.932020 -2.916680 0.551087 6.456720 -0.000001 -0.000000 -8.208530 -2.339840 -0.651843 12.994200 -0.242716 4.980390 -91.604100 8.374040 -79.115800 5.348090 -0.000007 -0.000001 -60.788800 27.093500 -23.470700 24.328600 0.000019 0.000005 13.880000 21.437800 -34.062400 22.291600 -0.000001 0.000005 13.477300 5.214920 2.342420 12.994500 -0.242716 -4.980390 89.042800 11.347900 -85.146400 -5.348130 -0.000001 -0.000004 -55.508800 37.613700 -23.149000 -24.328900 0.000322 -0.000009 2.024630 5.119550 -21.621800 -22.291500 -0.000108 -0.000004 15.925100 5.409480 -3.248080 -2.192480 -6.469440 -0.000000 -171.657000 -13.937900 1.313300 39.081100 -0.000007 -0.000012 -0.139049 0.225150 31.699000 40.985400 -0.000006 -0.000013 0.711129 7.442170 -69.436900 11.754300 -0.000000 0.000003 -0.000174 -0.001643 -16.639800 -2.192510 6.469440 -0.000001 174.074000 23.238300 -176.240000 -39.081100 -0.002282 -0.040193 -0.184764 0.337349 29.139400 -40.985400 0.000008 0.000006 5.068960 18.833400 -69.361800 -11.754300 -0.000006 -0.000006 -0.002444 -0.034145 -17.961600
0.000000 0.000000 0.000000 0.000000 0.000000 -0.000000 -1.181520 90.927900 -1.823940 87.858500 -3.679180 13.021000 15.735700 0.000005 -0.000001 90.008800 77.070300 -89.612800 8.984550 -0.406207 -0.000000 18.093300 0.039434 0.787393 16.377300 -0.000001 -0.000001 5.980090 -2.959010 0.565716 6.456720 -0.000001 -0.000000 -8.211230 -2.381250 -0.617591 12.994200 -0.242716 4.980390 -91.585300 8.309990 -79.159800 5.348090 -0.000007 -0.000001 -60.687900 26.098900 -23.861300 24.328600 0.000019 0.000005 14.555800 21.002200 -35.922500 22.291600 -0.000001 0.000005 14.021500 5.215750 2.321060 12.994500 -0.242716 -4.980390 89.033100 11.349300 -85.097900 -5.348130 -0.000001 -0.000004 -55.510000 37.568900 -23.113300 -24.328900 0.000322 -0.000009 2.056440 5.208940 -21.589100 -22.291500 -0.000108 -0.000004 15.868800 5.409230 -3.239820 -2.192480 -6.469440 -0.000000 -171.659000 -13.943100 1.271540 39.081100 -0.000007 -0.000012 -0.137402 0.222356 31.713600 40.985400 -0.000006 -0.000013 0.723191 7.479660 -69.415400 11.754300 -0.000000 0.000003 -0.000171 -0.001621 -16.639000 -2.192510 6.469440 -0.000001 174.084000 23.258800 -176.262000 -39.081100 -0.002282 -0.040193 -0.185094 0.337806 29.149000 -40.985400 0.000008 0.000006 5.075660 18.821400 -69.353500 -11.754300 -0.000006 -0.000006 -0.002455 -0.034268 -17.966600
